<svg width="48" height="48" viewBox="0 0 48 48" fill="none" xmlns="http://www.w3.org/2000/svg">
<path d="M3.125 29.166C2.70878 27.4756 2.49891 25.7409 2.5 24C2.5 12.126 12.126 2.5 24 2.5C35.874 2.5 45.5 12.126 45.5 24C45.5 35.874 35.874 45.5 24 45.5C16.884 45.5 10.575 42.043 6.662 36.716" stroke="black" stroke-linecap="round" stroke-linejoin="round"/>
<path d="M6.50601 11.5C3.69201 15.71 7.14001 18.178 7.47601 20.196C7.81201 22.214 0.160006 30.963 2.50001 35.28C4.84001 39.597 12.075 33.43 14.094 35.785C16.113 38.14 16.644 41.393 19.785 41.365C22.926 41.337 25.07 40.556 27.355 42.655C29.64 44.754 31.391 44.461 33.415 43.335" stroke="black" stroke-linecap="round" stroke-linejoin="round"/>
<path d="M36.407 24.384C36.625 24.1855 36.7992 23.9437 36.9184 23.674C37.0377 23.4044 37.0994 23.1128 37.0996 22.818C37.0997 22.5231 37.0384 22.2315 36.9195 21.9617C36.8006 21.6919 36.6268 21.4498 36.409 21.251C34.6534 19.6454 32.7277 18.2363 30.666 17.049C28.6018 15.8607 26.4159 14.8975 24.146 14.176C23.8656 14.0879 23.57 14.059 23.2779 14.0913C22.9858 14.1236 22.7035 14.2164 22.4492 14.3637C22.1949 14.511 21.974 14.7096 21.8006 14.9469C21.6272 15.1842 21.5051 15.455 21.442 15.742C20.9293 18.0657 20.6721 20.4385 20.675 22.818C20.6779 25.2005 20.9367 27.5758 21.447 29.903C21.5105 30.189 21.6327 30.4586 21.8058 30.6949C21.9789 30.9312 22.1992 31.1289 22.4528 31.2755C22.7063 31.4222 22.9876 31.5146 23.2787 31.5469C23.5698 31.5791 23.8645 31.5506 24.144 31.463C26.4165 30.7448 28.6035 29.7801 30.666 28.586C32.724 27.3945 34.6484 25.9858 36.406 24.384H36.407Z" fill="black" stroke="black" stroke-linecap="round" stroke-linejoin="round"/>
<path d="M33.698 26.397C34.221 25.92 34.222 25.097 33.698 24.619C32.7021 23.7081 31.6096 22.9087 30.44 22.235C29.2689 21.5609 28.0288 21.0144 26.741 20.605C26.582 20.5551 26.4143 20.5388 26.2486 20.5571C26.0829 20.5754 25.9229 20.628 25.7786 20.7115C25.6344 20.795 25.5091 20.9076 25.4106 21.0422C25.3122 21.1767 25.2429 21.3303 25.207 21.493C24.9159 22.8115 24.7697 24.1578 24.771 25.508C24.773 27.054 24.965 28.417 25.209 29.528C25.2449 29.6903 25.3142 29.8434 25.4123 29.9775C25.5105 30.1117 25.6355 30.2239 25.7793 30.3072C25.9232 30.3905 26.0827 30.443 26.2479 30.4614C26.4131 30.4798 26.5804 30.4637 26.739 30.414C28.0285 30.0063 29.2696 29.4587 30.44 28.781C31.6081 28.1051 32.7004 27.3059 33.698 26.397Z" fill="black" stroke="black" stroke-linecap="round" stroke-linejoin="round"/>
</svg>
